<?xml version="1.0" encoding="UTF-8"?>
<svg width="512px" height="512px" viewBox="0 0 512 512" version="1.1" xmlns="http://www.w3.org/2000/svg" xmlns:xlink="http://www.w3.org/1999/xlink">
    <title>Jwc.js</title>
    <defs>
        <linearGradient x1="43.5156078%" y1="74.0041909%" x2="56.4843922%" y2="42.8744439%" id="linearGradient-1">
            <stop stop-color="#212121" offset="0%"></stop>
            <stop stop-color="#464646" offset="100%"></stop>
        </linearGradient>
        <linearGradient x1="50%" y1="25.1169904%" x2="50%" y2="100%" id="linearGradient-2">
            <stop stop-color="#212121" offset="0%"></stop>
            <stop stop-color="#464646" offset="100%"></stop>
        </linearGradient>
        <linearGradient x1="73.4266647%" y1="0%" x2="26.5733353%" y2="50%" id="linearGradient-3">
            <stop stop-color="#212121" offset="0%"></stop>
            <stop stop-color="#464646" offset="100%"></stop>
        </linearGradient>
    </defs>
    <g id="Jwc.js" stroke="none" stroke-width="1" fill="none" fill-rule="evenodd">
        <g id="Jwc.js-Dark">
            <rect id="矩形" fill="#212121" x="0" y="0" width="512" height="512.184" rx="70"></rect>
            <path d="M511.440383,99.0440257 C480.766021,104.938997 455.807711,120.116279 435.540216,144.969233 C410.526739,175.168762 398.02,213.133883 398.02,258.433175 C398.02,302.869624 410.095472,339.971902 435.108949,369.740008 C455.422995,394.125624 480.70326,408.944493 511.440383,414.186102 C511.440383,403.590878 511.440383,409.177447 511.440383,403.557078 C483.667402,398.431205 461.61948,384.824911 443.303019,362.837259 C420.014609,335.226262 408.370404,300.712515 408.370404,258.433175 C408.370404,215.290992 420.014609,179.914402 443.303019,151.440561 C461.751909,129.166658 484.145687,115.350273 511.50959,109.62785 C511.50959,101.903191 511.440383,109.274602 511.440383,99.0440257 Z" id="路径" stroke="url(#linearGradient-1)" fill-rule="nonzero"></path>
            <path d="M377.924879,182.249472 L377.924879,404.44468 C377.924879,436.640312 371.578725,460.673671 359.793011,476.091298 C347.100703,492.869303 326.249055,501.485036 297.691363,501.485036 C246.468835,501.485036 221.08422,474.277459 221.08422,419.862306 L221.08422,406.711978 L210.205099,406.711978 L210.205099,419.862306 C210.205099,451.151019 218.36444,474.730919 235.136418,490.602005 C250.095209,505.112712 270.946857,512.368066 297.691363,512.368066 C330.328725,512.368066 354.353451,501.485036 369.765538,480.625894 C382.457846,462.487509 388.804,437.093771 388.804,404.44468 L388.804,182.249472 L377.924879,182.249472 Z" id="路径" stroke="url(#linearGradient-2)" fill-rule="nonzero"></path>
            <polygon id="路径" stroke="url(#linearGradient-3)" fill-rule="nonzero" points="0.502454033 173.978246 19.3402241 106.913512 20.5713165 106.913512 102.233782 389.756018 117.006891 389.756018 201.131541 96.6507214 190.051709 96.6507214 110.0307 380.314251 108.799608 380.314251 27.547507 96.6507214 12.3640336 96.6507214 0.502454033 139.604035"></polygon>
            <path d="M304.800085,248.089125 L297.28012,248.089125 C296.698121,252.050855 288.438773,268.745773 272.502076,298.173879 L272.502581,298.174152 C267.505689,307.401434 255.974717,310.830842 246.747436,305.83395 C243.402116,304.022344 240.677669,301.248198 238.926827,297.870679 C223.327365,267.775403 215.308553,251.181567 214.870482,248.089125 L206,248.089125 C209.14759,256.168951 210.578313,260.497429 213.439759,269.731515 C237.18652,335.843022 249.727571,372.265369 251.062912,378.998557 L260.505683,378.998557 C262.22255,369.18734 301.734797,254.361977 304.800085,248.089125 Z" id="路径" fill-opacity="0.553743376" fill="#FFFFFF" fill-rule="nonzero"></path>
            <path d="M304.800088,134.323824 L295.929606,134.323824 C295.34444,138.30758 287.26289,153.712044 271.684958,180.537214 L271.687427,180.538648 C266.418421,189.613296 254.790592,192.698377 245.715944,187.42937 C242.912921,185.801853 240.572854,183.484317 238.918294,180.697172 C222.429192,152.909485 213.962999,137.451752 213.519968,134.323824 C210.437799,134.323824 207.931143,134.323824 206,134.323824 C206.910654,137.165814 210.318401,146.733043 213.179847,155.96713 C236.748333,210.649216 249.200246,241.356853 250.535588,248.090041 L259.978359,248.090041 C261.695226,238.278824 301.7348,140.597591 304.800088,134.323824 Z" id="路径" fill="#FFFFFF" fill-rule="nonzero" transform="translate(255.400044, 191.206932) rotate(180.000000) translate(-255.400044, -191.206932) "></path>
        </g>
    </g>
</svg>